<?xml version="1.0" encoding="UTF-8"?>
<svg id="_レイヤー_1" data-name="レイヤー 1" xmlns="http://www.w3.org/2000/svg" viewBox="0 0 105.83 106.55">
  <defs>
    <style>
      .cls-1 {
        fill: #d0d0d0;
      }

      .cls-2 {
        fill: #e60012;
      }

      .cls-2, .cls-3, .cls-4 {
        stroke: #231815;
      }

      .cls-2, .cls-3, .cls-4, .cls-5 {
        stroke-miterlimit: 10;
      }

      .cls-3, .cls-5 {
        fill: none;
      }

      .cls-6 {
        fill: #231815;
      }

      .cls-7 {
        fill: #93979a;
      }

      .cls-4 {
        fill: #fff;
      }

      .cls-5 {
        stroke: #040000;
      }

      .cls-8 {
        fill: #f5c839;
      }

      .cls-9 {
        fill: #df4b59;
      }

      .cls-10 {
        fill: #040000;
      }

      .cls-11 {
        fill: #3d4247;
      }
    </style>
  </defs>
  <g>
    <ellipse class="cls-4" cx="96.52" cy="103.11" rx="5.88" ry="2.94"/>
    <line class="cls-3" x1="96.52" y1="102.31" x2="96.52" y2="85.35"/>
    <polygon class="cls-2" points="104.84 87.83 96.52 92.67 96.52 82.99 104.84 87.83"/>
  </g>
  <g>
    <rect class="cls-8" x="26.53" y="31.37" width="21.44" height="7.37"/>
    <polygon class="cls-11" points="30.01 38.74 26.53 38.74 29.75 31.37 33.23 31.37 30.01 38.74"/>
    <polyline class="cls-11" points="33.9 38.74 36.95 31.37 40.6 31.37 37.56 38.74"/>
    <polyline class="cls-11" points="41.27 38.74 44.32 31.37 47.97 31.37 44.93 38.74"/>
    <rect class="cls-7" x="29.52" y="28.91" width="1.41" height="2.28"/>
    <rect class="cls-1" x="29.87" y="28.91" width=".7" height="2.28"/>
    <circle class="cls-7" cx="30.22" cy="28.03" r="2.46"/>
    <circle class="cls-1" cx="30.22" cy="28.03" r="2.11"/>
    <circle class="cls-9" cx="30.22" cy="28.03" r="1.76"/>
    <rect class="cls-7" x="43.58" y="28.91" width="1.41" height="2.28"/>
    <rect class="cls-1" x="43.93" y="28.91" width=".7" height="2.28"/>
    <circle class="cls-7" cx="44.28" cy="28.03" r="2.46"/>
    <circle class="cls-1" cx="44.28" cy="28.03" r="2.11"/>
    <circle class="cls-9" cx="44.28" cy="28.03" r="1.76"/>
    <rect class="cls-7" x="29.52" y="38.92" width="1.41" height="9.14"/>
    <rect class="cls-1" x="29.87" y="38.92" width=".7" height="9.14"/>
    <path class="cls-11" d="M31.63,48.06h-2.81s.7-.93.7-1.24h1.41c0,.32.7,1.24.7,1.24Z"/>
    <rect class="cls-7" x="43.58" y="38.92" width="1.41" height="9.14"/>
    <rect class="cls-1" x="43.93" y="38.92" width=".7" height="9.14"/>
    <path class="cls-11" d="M45.69,48.06h-2.81s.7-.93.7-1.24h1.41c0,.32.7,1.24.7,1.24Z"/>
    <rect class="cls-7" x="28.23" y="41.38" width="18.05" height="1.41"/>
    <rect class="cls-1" x="28.82" y="41.74" width="16.86" height=".7"/>
    <circle class="cls-11" cx="30.22" cy="42.09" r=".26"/>
    <circle class="cls-11" cx="44.28" cy="42.09" r=".26"/>
    <path class="cls-1" d="M47.8,37.87c0,.19-.16.35-.35.35h-20.39c-.19,0-.35-.16-.35-.35v-5.62c0-.19.16-.35.35-.35h20.39c.19,0,.35.16.35.35v5.62h0ZM48.15,31.19h-21.8c-.19,0-.35.16-.35.35v7.03c0,.19.16.35.35.35h21.8c.19,0,.35-.16.35-.35v-7.03c0-.19-.16-.35-.35-.35Z"/>
    <path class="cls-7" d="M27.06,38.22c-.19,0-.35-.16-.35-.35v-5.62c0-.19.16-.35.35-.35h20.39c.19,0,.35.16.35.35v5.62c0,.19-.16.35-.35.35h-20.39ZM48.15,31.19h-21.8c-.19,0-.35.16-.35.35v7.03c0,.19.16.35.35.35h21.8c.19,0,.35-.16.35-.35v-7.03c0-.19-.16-.35-.35-.35ZM27.06,38.4h20.39c.29,0,.53-.24.53-.53v-5.62c0-.29-.24-.53-.53-.53h-20.39c-.29,0-.53.24-.53.53v5.62c0,.29.24.53.53.53M48.15,31.36c.1,0,.18.08.18.18v7.03c0,.1-.08.18-.18.18h-21.8c-.1,0-.18-.08-.18-.18v-7.03c0-.1.08-.18.18-.18h21.8"/>
  </g>
  <ellipse class="cls-6" cx="39.31" cy="53.61" rx="8.44" ry="4.54"/>
  <g>
    <path class="cls-5" d="M4.34.5c6.21.37,42.77,3.17,68.67,34.56,20.75,25.15,21.83,53.11,21.73,62.27"/>
    <polygon class="cls-10" points="90.64 94.01 91.37 93.32 94.72 96.94 98.09 93.34 98.82 94.02 94.72 98.41 90.64 94.01"/>
  </g>
  <g>
    <path class="cls-5" d="M.86,2.94c-.56,5.73-3.27,39.46,21.71,68.23,24.57,28.3,57.74,30.85,65.82,31.12"/>
    <polygon class="cls-10" points="84.89 106.19 84.24 105.43 88.01 102.24 84.55 98.72 85.27 98.02 89.47 102.31 84.89 106.19"/>
  </g>
</svg>