<?xml version="1.0" encoding="UTF-8"?>
<svg id="_レイヤー_1" data-name="レイヤー 1" xmlns="http://www.w3.org/2000/svg" viewBox="0 0 254.15 410.19">
  <defs>
    <style>
      .cls-1 {
        fill: #040000;
      }

      .cls-2 {
        fill: #df4b59;
      }

      .cls-3 {
        fill: #cacacb;
      }

      .cls-4 {
        fill: #93979a;
      }

      .cls-5 {
        fill: #3f3b3a;
      }

      .cls-6 {
        fill: #ddd;
      }

      .cls-7 {
        fill: #f5c839;
      }

      .cls-8 {
        fill: #3d4247;
      }

      .cls-9 {
        fill: #727171;
      }

      .cls-10, .cls-11 {
        fill: #231815;
      }

      .cls-12 {
        fill: #e60012;
      }

      .cls-12, .cls-13, .cls-14, .cls-15, .cls-16 {
        stroke-miterlimit: 10;
      }

      .cls-12, .cls-15, .cls-16 {
        stroke: #231815;
      }

      .cls-17 {
        fill: #89898a;
      }

      .cls-13 {
        stroke: #040000;
      }

      .cls-13, .cls-14, .cls-15 {
        fill: none;
      }

      .cls-14 {
        stroke: #e60012;
      }

      .cls-18 {
        fill: #9fa0a0;
      }

      .cls-16 {
        fill: #fff;
      }

      .cls-11 {
        font-family: KozGoPr6N-Regular-90ms-RKSJ-H, 'Kozuka Gothic Pr6N';
        font-size: 12px;
      }

      .cls-19 {
        fill: #d0d0d0;
      }

      .cls-20 {
        fill: #b5b6b6;
      }
    </style>
  </defs>
  <g>
    <g>
      <line class="cls-14" x1="110.69" y1="21.32" x2="119.33" y2="29.81"/>
      <line class="cls-14" x1="119.55" y1="21.32" x2="110.47" y2="29.81"/>
    </g>
    <g>
      <line class="cls-14" x1="91.2" y1="34.16" x2="99.83" y2="42.64"/>
      <line class="cls-14" x1="100.06" y1="34.16" x2="90.97" y2="42.64"/>
    </g>
    <g>
      <line class="cls-14" x1="98.1" y1="24.09" x2="106.74" y2="32.58"/>
      <line class="cls-14" x1="106.96" y1="24.09" x2="97.88" y2="32.58"/>
    </g>
    <g>
      <ellipse class="cls-16" cx="170.93" cy="103.11" rx="5.88" ry="2.94"/>
      <line class="cls-15" x1="170.93" y1="102.31" x2="170.93" y2="85.35"/>
      <polygon class="cls-12" points="179.25 87.83 170.93 92.67 170.93 82.99 179.25 87.83"/>
    </g>
    <g>
      <rect class="cls-7" x="100.94" y="31.37" width="21.44" height="7.37"/>
      <polygon class="cls-8" points="104.42 38.74 100.94 38.74 104.16 31.37 107.64 31.37 104.42 38.74"/>
      <polyline class="cls-8" points="108.31 38.74 111.35 31.37 115.01 31.37 111.96 38.74"/>
      <polyline class="cls-8" points="115.68 38.74 118.72 31.37 122.38 31.37 119.33 38.74"/>
      <rect class="cls-4" x="103.92" y="28.91" width="1.41" height="2.28"/>
      <rect class="cls-19" x="104.27" y="28.91" width=".7" height="2.28"/>
      <circle class="cls-4" cx="104.63" cy="28.03" r="2.46"/>
      <circle class="cls-19" cx="104.63" cy="28.03" r="2.11"/>
      <circle class="cls-2" cx="104.63" cy="28.03" r="1.76"/>
      <rect class="cls-4" x="117.99" y="28.91" width="1.41" height="2.28"/>
      <rect class="cls-19" x="118.34" y="28.91" width=".7" height="2.28"/>
      <circle class="cls-4" cx="118.69" cy="28.03" r="2.46"/>
      <circle class="cls-19" cx="118.69" cy="28.03" r="2.11"/>
      <circle class="cls-2" cx="118.69" cy="28.03" r="1.76"/>
      <rect class="cls-4" x="103.92" y="38.92" width="1.41" height="9.14"/>
      <rect class="cls-19" x="104.27" y="38.92" width=".7" height="9.14"/>
      <path class="cls-8" d="M106.03,48.06h-2.81s.7-.93.7-1.24h1.41c0,.32.7,1.24.7,1.24Z"/>
      <rect class="cls-4" x="117.99" y="38.92" width="1.41" height="9.14"/>
      <rect class="cls-19" x="118.34" y="38.92" width=".7" height="9.14"/>
      <path class="cls-8" d="M120.09,48.06h-2.81s.7-.93.7-1.24h1.41c0,.32.7,1.24.7,1.24Z"/>
      <rect class="cls-4" x="102.63" y="41.38" width="18.05" height="1.41"/>
      <rect class="cls-19" x="103.22" y="41.74" width="16.86" height=".7"/>
      <circle class="cls-8" cx="104.63" cy="42.09" r=".26"/>
      <circle class="cls-8" cx="118.69" cy="42.09" r=".26"/>
      <path class="cls-19" d="M122.2,37.87c0,.19-.16.35-.35.35h-20.39c-.19,0-.35-.16-.35-.35v-5.62c0-.19.16-.35.35-.35h20.39c.19,0,.35.16.35.35v5.62h0ZM122.56,31.19h-21.8c-.19,0-.35.16-.35.35v7.03c0,.19.16.35.35.35h21.8c.19,0,.35-.16.35-.35v-7.03c0-.19-.16-.35-.35-.35Z"/>
      <path class="cls-4" d="M101.46,38.22c-.19,0-.35-.16-.35-.35v-5.62c0-.19.16-.35.35-.35h20.39c.19,0,.35.16.35.35v5.62c0,.19-.16.35-.35.35h-20.39ZM122.56,31.19h-21.8c-.19,0-.35.16-.35.35v7.03c0,.19.16.35.35.35h21.8c.19,0,.35-.16.35-.35v-7.03c0-.19-.16-.35-.35-.35ZM101.46,38.4h20.39c.29,0,.53-.24.53-.53v-5.62c0-.29-.24-.53-.53-.53h-20.39c-.29,0-.53.24-.53.53v5.62c0,.29.24.53.53.53M122.56,31.36c.1,0,.18.08.18.18v7.03c0,.1-.08.18-.18.18h-21.8c-.1,0-.18-.08-.18-.18v-7.03c0-.1.08-.18.18-.18h21.8"/>
    </g>
    <ellipse class="cls-10" cx="113.71" cy="53.61" rx="8.44" ry="4.54"/>
    <g>
      <path class="cls-13" d="M78.75.5c6.21.37,42.77,3.17,68.67,34.56,20.75,25.15,21.83,53.11,21.73,62.27"/>
      <polygon class="cls-1" points="165.04 94.01 165.78 93.32 169.13 96.94 172.49 93.34 173.22 94.02 169.12 98.41 165.04 94.01"/>
    </g>
    <g>
      <path class="cls-13" d="M75.27,2.94c-.56,5.73-3.27,39.46,21.71,68.23,24.57,28.3,57.74,30.85,65.82,31.12"/>
      <polygon class="cls-1" points="159.3 106.19 158.65 105.43 162.41 102.24 158.96 98.72 159.67 98.02 163.88 102.31 159.3 106.19"/>
    </g>
    <g>
      <line class="cls-14" x1="84.43" y1="19.54" x2="93.07" y2="28.03"/>
      <line class="cls-14" x1="93.29" y1="19.54" x2="84.21" y2="28.03"/>
    </g>
    <g>
      <line class="cls-14" x1="86.88" y1="9.07" x2="95.52" y2="17.55"/>
      <line class="cls-14" x1="95.74" y1="9.07" x2="86.65" y2="17.55"/>
    </g>
    <g>
      <line class="cls-14" x1="98.2" y1="12.1" x2="106.84" y2="20.58"/>
      <line class="cls-14" x1="107.06" y1="12.1" x2="97.97" y2="20.58"/>
    </g>
  </g>
  <g>
    <path class="cls-9" d="M75.39,378.2c-17.78-6.96-34.15-17.09-49.76-28.08-7.44-5.24-14.91-10.87-19.71-18.6-13.19-21.25-1.87-48.72,10.01-70.74,12.39-22.98,25.46-45.87,42.9-65.3,17.44-19.43,39.76-35.34,65.24-41.03,51.54-11.51,106.92,24.68,123.87,74.69,13.97,41.2,4.73,108.28-31.27,137.56-35.28,28.69-101.19,27.21-141.28,11.5Z"/>
    <path class="cls-17" d="M84.98,362.66c-14.81-5.8-28.46-14.24-41.47-23.4-6.2-4.36-12.43-9.06-16.42-15.5-10.99-17.71-1.56-40.6,8.34-58.95,10.33-19.15,21.22-38.23,35.75-54.42,14.54-16.19,33.13-29.45,54.37-34.19,42.95-9.59,89.1,20.57,103.23,62.24,11.64,34.33,3.94,90.23-26.06,114.63-29.4,23.91-84.32,22.67-117.73,9.59Z"/>
    <path class="cls-18" d="M101.9,338.64c-10.29-4.03-19.76-9.89-28.8-16.25-4.31-3.03-8.63-6.29-11.41-10.77-7.63-12.3-1.08-28.2,5.79-40.94,7.17-13.3,14.73-26.55,24.83-37.79,10.09-11.24,23.01-20.45,37.75-23.75,29.83-6.66,61.87,14.28,71.69,43.22,8.08,23.84,2.74,62.66-18.1,79.61-20.42,16.6-58.56,15.75-81.76,6.66Z"/>
    <path class="cls-20" d="M111.52,328.3c-7.91-3.1-15.2-7.61-22.15-12.5-3.31-2.33-6.64-4.84-8.77-8.28-5.87-9.46-.83-21.69,4.46-31.49,5.52-10.23,11.33-20.42,19.1-29.07,7.77-8.65,17.7-15.73,29.04-18.27,22.94-5.12,47.59,10.99,55.14,33.25,6.22,18.34,2.11,48.2-13.92,61.23-15.71,12.77-45.04,12.11-62.89,5.12Z"/>
    <path class="cls-3" d="M119.19,313.52c-5.28-2.07-10.13-5.07-14.77-8.33-2.21-1.55-4.43-3.23-5.85-5.52-3.91-6.31-.55-14.46,2.97-20.99,3.68-6.82,7.56-13.61,12.73-19.38,5.18-5.76,11.8-10.49,19.36-12.18,15.3-3.41,31.73,7.32,36.76,22.17,4.15,12.23,1.4,32.13-9.28,40.82s-30.03,8.07-41.93,3.41Z"/>
    <path class="cls-6" d="M133.98,301.72c-2.64-1.03-5.07-2.54-7.38-4.17-1.1-.78-2.21-1.61-2.92-2.76-1.96-3.15-.28-7.23,1.49-10.5,1.84-3.41,3.78-6.81,6.37-9.69s5.9-5.24,9.68-6.09c7.65-1.71,15.86,3.66,18.38,11.08,2.07,6.11.7,16.07-4.64,20.41s-15.01,4.04-20.96,1.71Z"/>
    <path class="cls-5" d="M97.03,246.48c-3.09,4.17-8.22,7.08-13.38,6.51-3.29-.37-6.28-2.06-9.02-3.94-5.94-4.08-11.21-9.23-14.94-15.4s-5.86-13.38-5.51-20.58c.02-.46.06-.92.22-1.35.35-.93,1.25-1.54,2.19-1.85,2.68-.87,5.54.34,8.09,1.53,8.38,3.91,16.75,7.81,25.13,11.72,4.92,2.3,6.9,6,9.88,10.3,2.81,4.04-.04,9.51-2.67,13.06Z"/>
    <g>
      <ellipse class="cls-16" cx="142.07" cy="290.93" rx="5.88" ry="2.94"/>
      <line class="cls-15" x1="142.07" y1="290.13" x2="142.07" y2="273.17"/>
      <polygon class="cls-12" points="150.39 275.65 142.07 280.49 142.07 270.81 150.39 275.65"/>
    </g>
    <g>
      <rect class="cls-7" x="72.08" y="219.19" width="21.44" height="7.37"/>
      <polygon class="cls-8" points="75.56 226.56 72.08 226.56 75.3 219.19 78.78 219.19 75.56 226.56"/>
      <polyline class="cls-8" points="79.45 226.56 82.5 219.19 86.15 219.19 83.11 226.56"/>
      <polyline class="cls-8" points="86.82 226.56 89.87 219.19 93.52 219.19 90.47 226.56"/>
      <rect class="cls-4" x="75.07" y="216.73" width="1.41" height="2.28"/>
      <rect class="cls-19" x="75.42" y="216.73" width=".7" height="2.28"/>
      <circle class="cls-4" cx="75.77" cy="215.84" r="2.46"/>
      <circle class="cls-19" cx="75.77" cy="215.84" r="2.11"/>
      <circle class="cls-2" cx="75.77" cy="215.84" r="1.76"/>
      <rect class="cls-4" x="89.13" y="216.73" width="1.41" height="2.28"/>
      <rect class="cls-19" x="89.48" y="216.73" width=".7" height="2.28"/>
      <circle class="cls-4" cx="89.83" cy="215.84" r="2.46"/>
      <circle class="cls-19" cx="89.83" cy="215.84" r="2.11"/>
      <circle class="cls-2" cx="89.83" cy="215.84" r="1.76"/>
      <rect class="cls-4" x="75.07" y="226.74" width="1.41" height="9.14"/>
      <rect class="cls-19" x="75.42" y="226.74" width=".7" height="9.14"/>
      <path class="cls-8" d="M77.18,235.88h-2.81s.7-.93.7-1.24h1.41c0,.32.7,1.24.7,1.24Z"/>
      <rect class="cls-4" x="89.13" y="226.74" width="1.41" height="9.14"/>
      <rect class="cls-19" x="89.48" y="226.74" width=".7" height="9.14"/>
      <path class="cls-8" d="M91.24,235.88h-2.81s.7-.93.7-1.24h1.41c0,.32.7,1.24.7,1.24Z"/>
      <rect class="cls-4" x="73.78" y="229.2" width="18.05" height="1.41"/>
      <rect class="cls-19" x="74.37" y="229.55" width="16.86" height=".7"/>
      <circle class="cls-8" cx="75.77" cy="229.91" r=".26"/>
      <circle class="cls-8" cx="89.83" cy="229.91" r=".26"/>
      <path class="cls-19" d="M93.35,225.69c0,.19-.16.35-.35.35h-20.39c-.19,0-.35-.16-.35-.35v-5.62c0-.19.16-.35.35-.35h20.39c.19,0,.35.16.35.35v5.62h0ZM93.7,219.01h-21.8c-.19,0-.35.16-.35.35v7.03c0,.19.16.35.35.35h21.8c.19,0,.35-.16.35-.35v-7.03c0-.19-.16-.35-.35-.35Z"/>
      <path class="cls-4" d="M72.61,226.04c-.19,0-.35-.16-.35-.35v-5.62c0-.19.16-.35.35-.35h20.39c.19,0,.35.16.35.35v5.62c0,.19-.16.35-.35.35h-20.39ZM93.7,219.01h-21.8c-.19,0-.35.16-.35.35v7.03c0,.19.16.35.35.35h21.8c.19,0,.35-.16.35-.35v-7.03c0-.19-.16-.35-.35-.35ZM72.61,226.21h20.39c.29,0,.53-.24.53-.53v-5.62c0-.29-.24-.53-.53-.53h-20.39c-.29,0-.53.24-.53.53v5.62c0,.29.24.53.53.53M93.7,219.18c.1,0,.18.08.18.18v7.03c0,.1-.08.18-.18.18h-21.8c-.1,0-.18-.08-.18-.18v-7.03c0-.1.08-.18.18-.18h21.8"/>
    </g>
    <ellipse class="cls-10" cx="84.86" cy="241.42" rx="8.44" ry="4.54"/>
  </g>
  <text class="cls-11" transform="translate(91.08 123.98)"><tspan x="0" y="0">良くない状態</tspan></text>
  <text class="cls-11" transform="translate(61.08 406.12)"><tspan x="0" y="0">経路ではなく場で考える</tspan></text>
</svg>