<?xml version="1.0" encoding="UTF-8"?>
<svg id="_レイヤー_1" data-name="レイヤー 1" xmlns="http://www.w3.org/2000/svg" viewBox="0 0 66.85 83.2">
  <defs>
    <style>
      .cls-1 {
        stroke-width: .75px;
      }

      .cls-1, .cls-2, .cls-3, .cls-4 {
        stroke: #231815;
        stroke-miterlimit: 10;
      }

      .cls-1, .cls-3 {
        fill: none;
      }

      .cls-2 {
        fill: #e60012;
      }

      .cls-5, .cls-6 {
        fill: #231815;
      }

      .cls-4 {
        fill: #fff;
      }

      .cls-6 {
        font-family: KozGoPr6N-Regular-83pv-RKSJ-H, 'Kozuka Gothic Pr6N';
        font-size: 12px;
      }
    </style>
  </defs>
  <g>
    <line class="cls-1" x1="20.08" y1="49.11" x2="26.98" y2="62.04"/>
    <polygon class="cls-5" points="23.11 61.29 23.35 60.58 26.85 61.78 27.79 58.21 28.52 58.4 27.37 62.75 23.11 61.29"/>
  </g>
  <g>
    <ellipse class="cls-4" cx="57.54" cy="79.76" rx="5.88" ry="2.94"/>
    <line class="cls-3" x1="57.54" y1="78.95" x2="57.54" y2="61.99"/>
    <polygon class="cls-2" points="65.85 64.48 57.54 69.32 57.54 59.63 65.85 64.48"/>
  </g>
  <g>
    <line class="cls-1" x1="4.9" y1="12.53" x2="8.13" y2="25.81"/>
    <polygon class="cls-5" points="4.56 24.12 4.97 23.49 8.06 25.53 9.87 22.31 10.52 22.67 8.32 26.6 4.56 24.12"/>
  </g>
  <g>
    <line class="cls-1" x1="8.32" y1="27.59" x2="22.36" y2="23.83"/>
    <polygon class="cls-5" points="20.75 27.43 20.11 27.03 22.08 23.9 18.81 22.17 19.16 21.51 23.14 23.62 20.75 27.43"/>
  </g>
  <g>
    <line class="cls-1" x1="23.36" y1="24.87" x2="29.53" y2="36.24"/>
    <polygon class="cls-5" points="25.64 35.52 25.88 34.8 29.39 35.98 30.31 32.4 31.04 32.59 29.91 36.95 25.64 35.52"/>
  </g>
  <g>
    <line class="cls-1" x1="29.92" y1="37.86" x2="19.33" y2="47.41"/>
    <polygon class="cls-5" points="19.12 43.47 19.87 43.54 19.54 47.22 23.24 47.28 23.23 48.03 18.72 47.96 19.12 43.47"/>
  </g>
  <g>
    <line class="cls-1" x1="28" y1="63.14" x2="39.33" y2="73.49"/>
    <polygon class="cls-5" points="35.43 74.08 35.42 73.33 39.12 73.29 38.81 69.61 39.56 69.55 39.93 74.04 35.43 74.08"/>
  </g>
  <g>
    <line class="cls-1" x1="40.63" y1="74.15" x2="55.15" y2="79.08"/>
    <polygon class="cls-5" points="51.81 81.19 51.51 80.5 54.88 78.99 53.12 75.74 53.78 75.38 55.92 79.34 51.81 81.19"/>
  </g>
  <text class="cls-6" transform="translate(39.24 70.47)"><tspan x="0" y="0">1</tspan></text>
  <text class="cls-6" transform="translate(29.92 61.99)"><tspan x="0" y="0">2</tspan></text>
  <text class="cls-6" transform="translate(11.22 51.43)"><tspan x="0" y="0">3</tspan></text>
  <text class="cls-6" transform="translate(33.21 42.91)"><tspan x="0" y="0">4</tspan></text>
  <text class="cls-6" transform="translate(24.99 23.62)"><tspan x="0" y="0">5</tspan></text>
  <text class="cls-6" transform="translate(0 35.6)"><tspan x="0" y="0">6</tspan></text>
  <text class="cls-6" transform="translate(1.6 10.56)"><tspan x="0" y="0">7</tspan></text>
</svg>