<?xml version="1.0" encoding="UTF-8"?>
<svg id="_レイヤー_1" data-name="レイヤー 1" xmlns="http://www.w3.org/2000/svg" viewBox="0 0 128.64 40.15">
  <defs>
    <style>
      .cls-1 {
        font-family: Times-Roman, Times;
        font-size: 6px;
      }

      .cls-1, .cls-2, .cls-3, .cls-4 {
        fill: #231815;
      }

      .cls-2 {
        font-size: 12px;
      }

      .cls-2, .cls-3 {
        font-family: Times-BoldItalic, Times;
        font-style: italic;
        font-weight: 700;
      }

      .cls-5, .cls-6, .cls-7, .cls-8, .cls-9, .cls-10 {
        stroke: #231815;
        stroke-miterlimit: 10;
      }

      .cls-5, .cls-6, .cls-8, .cls-10 {
        fill: none;
      }

      .cls-5, .cls-10 {
        stroke-width: .5px;
      }

      .cls-6 {
        stroke-width: .75px;
      }

      .cls-3 {
        font-size: 10px;
      }

      .cls-7 {
        fill: #e60012;
      }

      .cls-9 {
        fill: #fff;
      }

      .cls-10 {
        stroke-dasharray: 2.13 2.13;
      }
    </style>
  </defs>
  <g>
    <ellipse class="cls-9" cx="119.33" cy="28.47" rx="5.88" ry="2.94"/>
    <line class="cls-8" x1="119.33" y1="27.66" x2="119.33" y2="10.7"/>
    <polygon class="cls-7" points="127.65 13.19 119.33 18.03 119.33 8.34 127.65 13.19"/>
  </g>
  <g>
    <line class="cls-6" x1="8.07" y1="21.96" x2="21.45" y2="16.69"/>
    <polygon class="cls-4" points="20.26 20.46 19.58 20.13 21.18 16.8 17.73 15.45 18.01 14.75 22.2 16.39 20.26 20.46"/>
  </g>
  <g>
    <line class="cls-6" x1="22.95" y1="16.36" x2="38.12" y2="18.62"/>
    <polygon class="cls-4" points="35.21 21.28 34.79 20.67 37.84 18.57 35.53 15.68 36.11 15.22 38.92 18.74 35.21 21.28"/>
  </g>
  <g>
    <line class="cls-6" x1="39.24" y1="19.16" x2="52.62" y2="13.89"/>
    <polygon class="cls-4" points="51.43 17.66 50.75 17.33 52.35 14 48.91 12.65 49.18 11.95 53.38 13.59 51.43 17.66"/>
  </g>
  <g>
    <line class="cls-6" x1="54.12" y1="13.56" x2="69.3" y2="15.81"/>
    <polygon class="cls-4" points="66.39 18.48 65.96 17.86 69.01 15.77 66.7 12.88 67.29 12.42 70.1 15.94 66.39 18.48"/>
  </g>
  <g>
    <line class="cls-6" x1="70.8" y1="16.22" x2="85.16" y2="16.76"/>
    <polygon class="cls-4" points="82.56 19.73 82.07 19.17 84.87 16.75 82.26 14.13 82.8 13.6 85.97 16.79 82.56 19.73"/>
  </g>
  <g>
    <line class="cls-6" x1="86.67" y1="17.06" x2="99.66" y2="25.22"/>
    <polygon class="cls-4" points="95.93 26.5 95.78 25.76 99.42 25.07 98.46 21.49 99.19 21.3 100.35 25.65 95.93 26.5"/>
  </g>
  <g>
    <line class="cls-6" x1="101.06" y1="25.64" x2="116.23" y2="27.9"/>
    <polygon class="cls-4" points="113.32 30.57 112.9 29.95 115.94 27.86 113.64 24.97 114.22 24.5 117.03 28.02 113.32 30.57"/>
  </g>
  <text class="cls-3" transform="translate(.11 23.81)"><tspan x="0" y="0">x</tspan></text>
  <text class="cls-3" transform="translate(105.96 9.58)"><tspan x="0" y="0">x</tspan></text>
  <g>
    <line class="cls-5" x1="110.9" y1="12.29" x2="111.26" y2="13.22"/>
    <line class="cls-10" x1="112.03" y1="15.2" x2="116.28" y2="26.1"/>
    <line class="cls-5" x1="116.67" y1="27.09" x2="117.03" y2="28.02"/>
  </g>
  <text class="cls-1" transform="translate(110.9 11.29)"><tspan x="0" y="0">f</tspan></text>
  <text class="cls-3" transform="translate(10.6 28.47)"><tspan x="0" y="0">u</tspan></text>
  <text class="cls-3" transform="translate(25.55 25.53)"><tspan x="0" y="0">u</tspan></text>
  <text class="cls-3" transform="translate(103.39 35.89)"><tspan x="0" y="0">u</tspan></text>
  <text class="cls-3" transform="translate(19.52 13.59)"><tspan x="0" y="0">x</tspan></text>
  <text class="cls-3" transform="translate(35.97 13.76)"><tspan x="0" y="0">x</tspan></text>
  <text class="cls-3" transform="translate(100.35 21.36)"><tspan x="0" y="0">x</tspan></text>
  <text class="cls-3" transform="translate(66.77 8.34)"><tspan x="0" y="0">...</tspan></text>
  <text class="cls-2" transform="translate(67.06 27.66)"><tspan x="0" y="0">...</tspan></text>
</svg>