<?xml version="1.0" encoding="UTF-8"?>
<svg id="_レイヤー_1" data-name="レイヤー 1" xmlns="http://www.w3.org/2000/svg" viewBox="0 0 397.58 189.87">
  <defs>
    <style>
      .cls-1, .cls-2, .cls-3 {
        stroke: #231815;
      }

      .cls-1, .cls-2, .cls-4, .cls-5 {
        stroke-miterlimit: 10;
      }

      .cls-1, .cls-3, .cls-4, .cls-6, .cls-7 {
        fill: none;
      }

      .cls-1, .cls-5 {
        stroke-width: .25px;
      }

      .cls-2 {
        fill-rule: evenodd;
      }

      .cls-2, .cls-8 {
        fill: #040000;
      }

      .cls-3 {
        stroke-linejoin: round;
      }

      .cls-4 {
        stroke-width: .5px;
      }

      .cls-4, .cls-7 {
        stroke: #040000;
      }

      .cls-9 {
        letter-spacing: .25em;
      }

      .cls-5 {
        stroke: #fff;
      }

      .cls-5, .cls-10 {
        fill: #fff;
      }

      .cls-6, .cls-10 {
        stroke: #e71f19;
      }

      .cls-6, .cls-10, .cls-7 {
        stroke-miterlimit: 8;
        stroke-width: 1.5px;
      }

      .cls-11 {
        font-size: 12px;
      }

      .cls-11, .cls-12 {
        fill: #231815;
        font-family: KozGoPr6N-Regular-83pv-RKSJ-H, 'Kozuka Gothic Pr6N';
      }

      .cls-12 {
        font-size: 17px;
      }

      .cls-13 {
        letter-spacing: -.5em;
      }
    </style>
  </defs>
  <polygon class="cls-2" points="24.1 .5 46.4 .5 46.4 21.36 24.1 21.36 24.1 .5 24.1 .5"/>
  <polygon class="cls-2" points="46.4 .5 68.7 .5 68.7 21.36 46.4 21.36 46.4 .5 46.4 .5"/>
  <polygon class="cls-2" points="68.7 .5 90.99 .5 90.99 21.36 68.7 21.36 68.7 .5 68.7 .5"/>
  <polygon class="cls-2" points="90.99 .5 113.29 .5 113.29 21.36 90.99 21.36 90.99 .5 90.99 .5"/>
  <polygon class="cls-2" points="113.29 .5 135.59 .5 135.59 21.36 113.29 21.36 113.29 .5 113.29 .5"/>
  <polygon class="cls-2" points="24.1 21.36 46.4 21.36 46.4 42.21 24.1 42.21 24.1 21.36 24.1 21.36"/>
  <polygon class="cls-2" points="24.1 42.21 46.4 42.21 46.4 63.07 24.1 63.07 24.1 42.21 24.1 42.21"/>
  <polygon class="cls-2" points="24.1 63.07 46.4 63.07 46.4 83.92 24.1 83.92 24.1 63.07 24.1 63.07"/>
  <polygon class="cls-2" points="24.1 83.92 46.4 83.92 46.4 104.78 24.1 104.78 24.1 83.92 24.1 83.92"/>
  <polygon class="cls-2" points="1.8 146.49 24.1 146.49 24.1 167.34 1.8 167.34 1.8 146.49 1.8 146.49"/>
  <polygon class="cls-2" points="68.7 146.49 90.99 146.49 90.99 167.34 68.7 167.34 68.7 146.49 68.7 146.49"/>
  <polygon class="cls-2" points="90.99 146.49 113.29 146.49 113.29 167.34 90.99 167.34 90.99 146.49 90.99 146.49"/>
  <line class="cls-3" x1="1.8" x2="1.8" y2="167.84"/>
  <line class="cls-3" x1="180.19" x2="180.19" y2="167.84"/>
  <line class="cls-3" x1="1.3" y1=".5" x2="180.69" y2=".5"/>
  <line class="cls-3" x1="2.25" y1="167.34" x2="181.64" y2="167.34"/>
  <g>
    <line class="cls-7" x1="124.03" y1="90.42" x2="115.41" y2="89.99"/>
    <polygon class="cls-8" points="118.52 87.6 115.85 90.02 118.26 92.68 116.11 92.57 113.69 89.91 116.36 87.49 118.52 87.6"/>
  </g>
  <line class="cls-6" x1="116.69" y1="97.23" x2="90.53" y2="112.13"/>
  <line class="cls-6" x1="113.7" y1="89.91" x2="33.53" y2="89.91"/>
  <line class="cls-6" x1="115.31" y1="93.51" x2="57.29" y2="107.82"/>
  <line class="cls-6" x1="115.33" y1="82.62" x2="36.41" y2="8.55"/>
  <line class="cls-6" x1="123.37" y1="78.3" x2="114.41" y2="8.55"/>
  <line class="cls-10" x1="118.97" y1="80.69" x2="77.33" y2="6.99"/>
  <line class="cls-6" x1="114.36" y1="86.74" x2="35.69" y2="53.31"/>
  <line class="cls-6" x1="123.95" y1="101.19" x2="98.09" y2="149.61"/>
  <line class="cls-6" x1="118.97" y1="99.27" x2="77.33" y2="143.82"/>
  <line class="cls-4" x1="146.68" y1="109.23" x2="126.08" y2="91.97"/>
  <line class="cls-4" x1="119.77" y1="47" x2="150.99" y2="78.23"/>
  <text class="cls-11" transform="translate(0 185.81)"><tspan x="0" y="0">(a) 尤</tspan><tspan class="cls-9" x="28.44" y="0">度</tspan><tspan x="43.44" y="0">14（</tspan><tspan class="cls-9" x="68.66" y="0">黒6</tspan><tspan x="93.27" y="0">個，黒の</tspan><tspan class="cls-9" x="141.27" y="0">隣2</tspan><tspan x="165.89" y="0">個</tspan><tspan class="cls-13" x="177.89" y="0">）</tspan></text>
  <text class="cls-11" transform="translate(218.03 185.81)"><tspan x="0" y="0">(b) 尤</tspan><tspan class="cls-9" x="29.57" y="0">度</tspan><tspan x="44.57" y="0">5（</tspan><tspan class="cls-9" x="63.18" y="0">黒2</tspan><tspan x="87.79" y="0">個，黒の</tspan><tspan class="cls-9" x="135.79" y="0">隣1</tspan><tspan x="160.4" y="0">個</tspan><tspan class="cls-13" x="172.4" y="0">）</tspan></text>
  <g>
    <rect class="cls-1" x="1.8" y=".69" width="178.39" height="167.15"/>
    <line class="cls-1" x1="1.8" y1="146.95" x2="180.19" y2="146.95"/>
    <line class="cls-1" x1="1.8" y1="126.05" x2="180.19" y2="126.05"/>
    <line class="cls-1" x1="1.8" y1="105.16" x2="180.19" y2="105.16"/>
    <line class="cls-1" x1="1.8" y1="84.27" x2="180.19" y2="84.27"/>
    <line class="cls-1" x1="1.8" y1="63.37" x2="180.19" y2="63.37"/>
    <line class="cls-1" x1="1.8" y1="42.48" x2="180.19" y2="42.48"/>
    <line class="cls-1" x1="1.8" y1="21.59" x2="180.19" y2="21.59"/>
    <line class="cls-1" x1="157.89" y1=".69" x2="157.89" y2="167.84"/>
    <line class="cls-1" x1="135.59" y1=".69" x2="135.59" y2="167.84"/>
    <line class="cls-1" x1="113.29" y1=".69" x2="113.29" y2="167.84"/>
    <line class="cls-1" x1="90.99" y1=".69" x2="90.99" y2="167.84"/>
    <line class="cls-1" x1="68.7" y1=".69" x2="68.7" y2="167.84"/>
    <line class="cls-1" x1="46.4" y1=".69" x2="46.4" y2="167.84"/>
    <line class="cls-1" x1="24.1" y1=".69" x2="24.1" y2="167.84"/>
  </g>
  <rect class="cls-5" x="149.68" y="71.45" width="50.38" height="17.63"/>
  <text class="cls-11" transform="translate(150.96 84.27)"><tspan x="0" y="0">レーザー</tspan></text>
  <rect class="cls-5" x="131" y="107.82" width="76.49" height="15.09"/>
  <text class="cls-11" transform="translate(132.87 120.58)"><tspan x="0" y="0">パーティクル</tspan></text>
  <polygon class="cls-2" points="240.04 .5 262.34 .5 262.34 21.36 240.04 21.36 240.04 .5 240.04 .5"/>
  <polygon class="cls-2" points="262.34 .5 284.64 .5 284.64 21.36 262.34 21.36 262.34 .5 262.34 .5"/>
  <polygon class="cls-2" points="284.64 .5 306.94 .5 306.94 21.36 284.64 21.36 284.64 .5 284.64 .5"/>
  <polygon class="cls-2" points="306.94 .5 329.23 .5 329.23 21.36 306.94 21.36 306.94 .5 306.94 .5"/>
  <polygon class="cls-2" points="329.23 .5 351.53 .5 351.53 21.36 329.23 21.36 329.23 .5 329.23 .5"/>
  <polygon class="cls-2" points="240.04 21.36 262.34 21.36 262.34 42.21 240.04 42.21 240.04 21.36 240.04 21.36"/>
  <polygon class="cls-2" points="240.04 42.21 262.34 42.21 262.34 63.07 240.04 63.07 240.04 42.21 240.04 42.21"/>
  <polygon class="cls-2" points="240.04 63.07 262.34 63.07 262.34 83.92 240.04 83.92 240.04 63.07 240.04 63.07"/>
  <polygon class="cls-2" points="240.04 83.92 262.34 83.92 262.34 104.78 240.04 104.78 240.04 83.92 240.04 83.92"/>
  <polygon class="cls-2" points="217.74 146.49 240.04 146.49 240.04 167.34 217.74 167.34 217.74 146.49 217.74 146.49"/>
  <polygon class="cls-2" points="284.64 146.49 306.94 146.49 306.94 167.34 284.64 167.34 284.64 146.49 284.64 146.49"/>
  <polygon class="cls-2" points="306.94 146.49 329.23 146.49 329.23 167.34 306.94 167.34 306.94 146.49 306.94 146.49"/>
  <line class="cls-3" x1="217.74" x2="217.74" y2="167.84"/>
  <line class="cls-3" x1="396.13" x2="396.13" y2="167.84"/>
  <line class="cls-3" x1="217.24" y1=".5" x2="396.63" y2=".5"/>
  <line class="cls-3" x1="218.19" y1="167.34" x2="397.58" y2="167.34"/>
  <g>
    <line class="cls-7" x1="386.97" y1="90.42" x2="378.35" y2="89.99"/>
    <polygon class="cls-8" points="381.46 87.6 378.79 90.02 381.2 92.68 379.05 92.57 376.63 89.91 379.3 87.49 381.46 87.6"/>
  </g>
  <line class="cls-6" x1="379.63" y1="97.23" x2="353.47" y2="112.13"/>
  <line class="cls-6" x1="376.64" y1="89.91" x2="296.47" y2="89.91"/>
  <line class="cls-6" x1="378.25" y1="93.51" x2="320.23" y2="107.82"/>
  <line class="cls-6" x1="378.27" y1="82.62" x2="299.35" y2="8.55"/>
  <line class="cls-6" x1="386.31" y1="78.3" x2="377.35" y2="8.55"/>
  <line class="cls-10" x1="381.91" y1="80.69" x2="340.27" y2="6.99"/>
  <line class="cls-6" x1="377.3" y1="86.74" x2="298.63" y2="53.31"/>
  <line class="cls-6" x1="386.89" y1="101.19" x2="361.03" y2="149.61"/>
  <line class="cls-6" x1="381.91" y1="99.27" x2="340.27" y2="143.82"/>
  <g>
    <rect class="cls-1" x="217.74" y=".69" width="178.39" height="167.15"/>
    <line class="cls-1" x1="217.74" y1="146.95" x2="396.13" y2="146.95"/>
    <line class="cls-1" x1="217.74" y1="126.05" x2="396.13" y2="126.05"/>
    <line class="cls-1" x1="217.74" y1="105.16" x2="396.13" y2="105.16"/>
    <line class="cls-1" x1="217.74" y1="84.27" x2="396.13" y2="84.27"/>
    <line class="cls-1" x1="217.74" y1="63.37" x2="396.13" y2="63.37"/>
    <line class="cls-1" x1="217.74" y1="42.48" x2="396.13" y2="42.48"/>
    <line class="cls-1" x1="217.74" y1="21.59" x2="396.13" y2="21.59"/>
    <line class="cls-1" x1="373.83" y1=".69" x2="373.83" y2="167.84"/>
    <line class="cls-1" x1="351.53" y1=".69" x2="351.53" y2="167.84"/>
    <line class="cls-1" x1="329.23" y1=".69" x2="329.23" y2="167.84"/>
    <line class="cls-1" x1="306.94" y1=".69" x2="306.94" y2="167.84"/>
    <line class="cls-1" x1="284.64" y1=".69" x2="284.64" y2="167.84"/>
    <line class="cls-1" x1="262.34" y1=".69" x2="262.34" y2="167.84"/>
    <line class="cls-1" x1="240.04" y1=".69" x2="240.04" y2="167.84"/>
  </g>
  <text class="cls-12" transform="translate(80.13 126.02)"><tspan x="0" y="0">*</tspan></text>
</svg>