<?xml version="1.0" encoding="UTF-8"?>
<svg id="_レイヤー_1" data-name="レイヤー 1" xmlns="http://www.w3.org/2000/svg" viewBox="0 0 262.08 131.69">
  <defs>
    <style>
      .cls-1, .cls-2, .cls-3 {
        font-size: 10px;
      }

      .cls-1, .cls-2, .cls-3, .cls-4 {
        font-family: KozGoPr6N-Regular-83pv-RKSJ-H, 'Kozuka Gothic Pr6N';
      }

      .cls-1, .cls-5 {
        fill: #cf00e7;
      }

      .cls-2, .cls-6 {
        fill: red;
      }

      .cls-3, .cls-7 {
        fill: #1f17ff;
      }

      .cls-8 {
        stroke: red;
      }

      .cls-8, .cls-9, .cls-10, .cls-11 {
        fill: none;
      }

      .cls-8, .cls-10, .cls-11 {
        stroke-linecap: round;
        stroke-linejoin: round;
        stroke-width: 2.24px;
      }

      .cls-4 {
        font-size: 14px;
      }

      .cls-9 {
        stroke: #000;
        stroke-miterlimit: 10;
      }

      .cls-10 {
        stroke: blue;
      }

      .cls-11 {
        stroke: #b536ff;
      }
    </style>
  </defs>
  <text class="cls-4" transform="translate(59.09 111.04)"><tspan x="0" y="0">画像の画素の超多次元分布P</tspan></text>
  <g>
    <line class="cls-9" x1="5.36" y1="118.92" x2="254.9" y2="118.92"/>
    <polygon points="253.44 123.91 262.08 118.92 253.44 113.94 253.44 123.91"/>
  </g>
  <g>
    <line class="cls-9" x1="21" y1="131.63" x2="21" y2="40.94"/>
    <polygon points="25.99 42.4 21 33.76 16.02 42.4 25.99 42.4"/>
  </g>
  <g>
    <line class="cls-9" x1="14.91" y1="131.49" x2="47.41" y2="55.24"/>
    <polygon points="51.42 58.54 50.22 48.64 42.25 54.63 51.42 58.54"/>
  </g>
  <circle class="cls-7" cx="145.97" cy="63.7" r="1.48"/>
  <text class="cls-3" transform="translate(117.39 81.24)"><tspan x="0" y="0">犬の画像の集団</tspan></text>
  <circle class="cls-7" cx="156.18" cy="62.22" r="1.48"/>
  <circle class="cls-7" cx="154.7" cy="53.52" r="1.48"/>
  <circle class="cls-7" cx="141.59" cy="55" r="1.48"/>
  <circle class="cls-6" cx="83.13" cy="37.24" r="1.48"/>
  <text class="cls-2" transform="translate(58.53 53.52)"><tspan x="0" y="0">猫の画像の集団</tspan></text>
  <circle class="cls-6" cx="72.81" cy="35.76" r="1.48"/>
  <circle class="cls-6" cx="84.6" cy="30.64" r="1.48"/>
  <circle class="cls-6" cx="96.4" cy="35.71" r="1.48"/>
  <circle class="cls-6" cx="87.2" cy="41.44" r="1.48"/>
  <circle class="cls-5" cx="190.52" cy="22.7" r="1.48"/>
  <text class="cls-1" transform="translate(180.21 42.92)"><tspan x="0" y="0">狸の画像の集団</tspan></text>
  <circle class="cls-5" cx="180.21" cy="21.22" r="1.48"/>
  <circle class="cls-5" cx="192" cy="16.1" r="1.48"/>
  <circle class="cls-5" cx="203.79" cy="21.18" r="1.48"/>
  <circle class="cls-5" cx="194.59" cy="26.9" r="1.48"/>
  <polyline class="cls-8" points="68.24 27.31 68.69 27.3 69.13 27.3 69.57 27.3 70.02 27.28 70.48 27.27 70.92 27.25 71.37 27.24 71.81 27.2 72.25 27.16 72.7 27.09 73.14 27.03 73.59 26.94 74.05 26.81 74.49 26.65 74.93 26.46 75.38 26.23 75.82 25.93 76.27 25.58 76.71 25.17 77.15 24.68 77.61 24.11 78.06 23.47 78.5 22.73 78.95 21.91 79.39 20.99 79.83 20.02 80.28 18.96 80.72 17.84 81.18 16.69 81.63 15.51 82.07 14.33 82.51 13.18 82.96 12.07 83.4 11.06 83.85 10.13 84.29 9.35 84.73 8.7 85.19 8.24 85.64 7.94 86.08 7.85 86.53 7.94 86.97 8.24 87.41 8.7 87.86 9.35 88.3 10.13 88.76 11.06 89.21 12.07 89.65 13.18 90.09 14.33 90.54 15.51 90.98 16.69 91.43 17.84 91.87 18.96 92.33 20.02 92.77 20.99 93.22 21.91 93.66 22.73 94.11 23.47 94.55 24.11 94.99 24.68 95.44 25.17 95.9 25.58 96.34 25.93 96.79 26.23 97.23 26.46 97.67 26.65 98.12 26.81 98.56 26.94 99.01 27.03 99.45 27.09 99.91 27.16 100.35 27.2 100.8 27.24 101.24 27.25 101.69 27.27 102.13 27.28 102.57 27.3 103.02 27.3 103.48 27.3 103.92 27.31"/>
  <polyline class="cls-10" points="131.89 49.7 132.34 49.68 132.78 49.68 133.23 49.68 133.67 49.67 134.13 49.65 134.57 49.63 135.02 49.62 135.46 49.59 135.9 49.54 136.35 49.48 136.79 49.41 137.24 49.32 137.7 49.19 138.14 49.03 138.58 48.85 139.03 48.61 139.47 48.31 139.92 47.96 140.36 47.55 140.81 47.06 141.26 46.5 141.71 45.85 142.15 45.11 142.6 44.29 143.04 43.38 143.48 42.4 143.93 41.34 144.37 40.22 144.83 39.07 145.28 37.89 145.72 36.71 146.16 35.56 146.61 34.45 147.05 33.45 147.5 32.52 147.94 31.73 148.39 31.08 148.84 30.62 149.29 30.32 149.73 30.23 150.18 30.32 150.62 30.62 151.06 31.08 151.51 31.73 151.95 32.52 152.41 33.45 152.86 34.45 153.3 35.56 153.74 36.71 154.19 37.89 154.63 39.07 155.08 40.22 155.52 41.34 155.98 42.4 156.42 43.38 156.87 44.29 157.31 45.11 157.76 45.85 158.2 46.5 158.64 47.06 159.09 47.55 159.55 47.96 159.99 48.31 160.44 48.61 160.88 48.85 161.32 49.03 161.77 49.19 162.21 49.32 162.66 49.41 163.1 49.48 163.56 49.54 164 49.59 164.45 49.62 164.89 49.63 165.34 49.65 165.78 49.67 166.22 49.68 166.67 49.68 167.13 49.68 167.57 49.7"/>
  <polyline class="cls-11" points="176.36 16.36 176.81 16.35 177.25 16.35 177.69 16.35 178.14 16.34 178.6 16.32 179.04 16.31 179.49 16.3 179.93 16.28 180.37 16.24 180.82 16.19 181.26 16.14 181.71 16.07 182.16 15.97 182.61 15.84 183.05 15.7 183.5 15.51 183.94 15.28 184.39 15 184.83 14.68 185.27 14.3 185.73 13.86 186.18 13.35 186.62 12.77 187.07 12.13 187.51 11.41 187.95 10.65 188.4 9.82 188.84 8.94 189.3 8.04 189.74 7.12 190.19 6.19 190.63 5.29 191.08 4.43 191.52 3.64 191.97 2.91 192.41 2.29 192.85 1.79 193.31 1.43 193.76 1.19 194.2 1.12 194.65 1.19 195.09 1.43 195.53 1.79 195.98 2.29 196.42 2.91 196.88 3.64 197.32 4.43 197.77 5.29 198.21 6.19 198.66 7.12 199.1 8.04 199.55 8.94 199.99 9.82 200.45 10.65 200.89 11.41 201.34 12.13 201.78 12.77 202.23 13.35 202.67 13.86 203.11 14.3 203.56 14.68 204.02 15 204.46 15.28 204.9 15.51 205.35 15.7 205.79 15.84 206.24 15.97 206.68 16.07 207.13 16.14 207.57 16.19 208.03 16.24 208.47 16.28 208.92 16.3 209.36 16.31 209.81 16.32 210.25 16.34 210.69 16.35 211.14 16.35 211.6 16.35 212.04 16.36"/>
  <text class="cls-4" transform="translate(0 14.63)"><tspan x="0" y="0">確率の</tspan><tspan x="7" y="16.8">密度</tspan></text>
</svg>