<?xml version="1.0" encoding="UTF-8"?>
<svg id="_レイヤー_1" data-name="レイヤー 1" xmlns="http://www.w3.org/2000/svg" viewBox="0 0 479.18 165.42">
  <defs>
    <style>
      .cls-1, .cls-2 {
        fill: none;
      }

      .cls-1, .cls-2, .cls-3 {
        stroke: #231815;
        stroke-miterlimit: 10;
      }

      .cls-1, .cls-3 {
        stroke-width: .5px;
      }

      .cls-4, .cls-5, .cls-6 {
        font-size: 12px;
      }

      .cls-4, .cls-6 {
        font-family: KozGoPr6N-Regular-83pv-RKSJ-H, 'Kozuka Gothic Pr6N';
      }

      .cls-7 {
        font-family: Times-Roman, Times;
        font-size: 8px;
      }

      .cls-3 {
        fill: #fff;
      }

      .cls-8, .cls-6 {
        fill: #231815;
      }

      .cls-5 {
        font-family: Times-Italic, Times;
        font-style: italic;
      }

      .cls-9 {
        letter-spacing: -.5em;
      }
    </style>
  </defs>
  <circle class="cls-3" cx="35" cy="48.71" r="22.15"/>
  <text class="cls-8" transform="translate(0 90.55)"><tspan class="cls-4" x="0" y="0">ガウス分布</tspan><tspan class="cls-5" x="60" y="-.65">p</tspan><tspan class="cls-7" x="66" y="3.09">0</tspan></text>
  <text class="cls-8" transform="translate(349.18 112.99)"><tspan class="cls-4" x="0" y="0">なにか意味のある分布</tspan><tspan class="cls-5" x="120" y="-.65">p</tspan><tspan class="cls-7" x="126" y="3.09">1</tspan><tspan class="cls-4"><tspan x="11" y="20.68">（画像の分布など</tspan><tspan class="cls-9" x="107" y="20.68">）</tspan></tspan></text>
  <path class="cls-1" d="M394.77,4.94c.33-1.37.96-2.71,2.05-3.6,3.69-3.01,8.92.81,12.07,4.38,2.79,3.17,5.76,7.51,3.79,11.25-.86,1.64-2.5,2.68-3.95,3.83-7.72,6.08-11.28,16.96-8.65,26.43.62,2.22,1.65,4.48,3.59,5.72,2.28,1.45,5.21,1.15,7.91,1.16,6.68.03,13.33,2.38,18.55,6.55,2.25,1.8,4.29,4.03,5.15,6.78,1.04,3.3.24,6.87-.56,10.24-1.17,4.95-2.52,10.2-6.26,13.65-4.98,4.58-13.07,4.47-18.93,1.09s-9.78-9.37-12.43-15.59c-8.77-20.57-3.55-39.36,5.45-58.43-4.71-2.69-9.21-7.45-7.78-13.45Z"/>
  <g>
    <line class="cls-2" x1="133.87" y1="43.41" x2="133.09" y2="38.73"/>
    <path class="cls-8" d="M132.1,32.77c1.51,2.63,3.86,5.81,6.1,7.65l-4.97-.91-4.41,2.48c1.52-2.47,2.71-6.24,3.29-9.21Z"/>
  </g>
  <g>
    <line class="cls-2" x1="152.4" y1="40.32" x2="151.62" y2="35.64"/>
    <path class="cls-8" d="M150.63,29.68c1.51,2.63,3.86,5.81,6.1,7.65l-4.97-.91-4.41,2.48c1.52-2.47,2.71-6.24,3.29-9.21Z"/>
  </g>
  <rect class="cls-2" x="116.15" y="10.62" width="92.23" height="92.23"/>
  <g>
    <line class="cls-2" x1="176.94" y1="84.08" x2="181.38" y2="85.74"/>
    <path class="cls-8" d="M187.04,87.85c-3.03,0-6.96.45-9.67,1.47l3.27-3.85.05-5.06c1.38,2.55,4.05,5.46,6.35,7.44Z"/>
  </g>
  <g>
    <line class="cls-2" x1="170.94" y1="38.09" x2="170.16" y2="33.41"/>
    <path class="cls-8" d="M169.17,27.46c1.51,2.63,3.86,5.81,6.1,7.65l-4.97-.91-4.41,2.48c1.52-2.47,2.71-6.24,3.29-9.21Z"/>
  </g>
  <g>
    <line class="cls-2" x1="185.55" y1="70.98" x2="190" y2="72.64"/>
    <path class="cls-8" d="M195.65,74.75c-3.03,0-6.96.45-9.67,1.47l3.27-3.85.05-5.06c1.38,2.55,4.05,5.46,6.35,7.44Z"/>
  </g>
  <g>
    <line class="cls-2" x1="144.61" y1="55.53" x2="143.83" y2="50.85"/>
    <path class="cls-8" d="M142.84,44.9c1.51,2.63,3.86,5.81,6.1,7.65l-4.97-.91-4.41,2.48c1.52-2.47,2.71-6.24,3.29-9.21Z"/>
  </g>
  <g>
    <line class="cls-2" x1="163.15" y1="52.44" x2="162.37" y2="47.76"/>
    <path class="cls-8" d="M161.37,41.81c1.51,2.63,3.86,5.81,6.1,7.65l-4.97-.91-4.41,2.48c1.52-2.47,2.71-6.24,3.29-9.21Z"/>
  </g>
  <g>
    <line class="cls-2" x1="181.68" y1="50.22" x2="180.9" y2="45.54"/>
    <path class="cls-8" d="M179.91,39.58c1.51,2.63,3.86,5.81,6.1,7.65l-4.97-.91-4.41,2.48c1.52-2.47,2.71-6.24,3.29-9.21Z"/>
  </g>
  <g>
    <line class="cls-2" x1="148.97" y1="81.8" x2="151.99" y2="85.46"/>
    <path class="cls-8" d="M155.83,90.12c-2.62-1.52-6.25-3.09-9.11-3.56l4.76-1.7,2.57-4.35c-.08,2.9.78,6.76,1.77,9.62Z"/>
  </g>
  <g>
    <line class="cls-2" x1="170.12" y1="72.86" x2="174.56" y2="74.52"/>
    <path class="cls-8" d="M180.22,76.63c-3.03,0-6.96.45-9.67,1.47l3.27-3.85.05-5.06c1.38,2.55,4.05,5.46,6.35,7.44Z"/>
  </g>
  <g>
    <line class="cls-2" x1="165.08" y1="31.87" x2="164.3" y2="27.19"/>
    <path class="cls-8" d="M163.31,21.24c1.51,2.63,3.86,5.81,6.1,7.65l-4.97-.91-4.41,2.48c1.52-2.47,2.71-6.24,3.29-9.21Z"/>
  </g>
  <g>
    <line class="cls-2" x1="143.72" y1="26.56" x2="142.94" y2="21.88"/>
    <path class="cls-8" d="M141.95,15.92c1.51,2.63,3.86,5.81,6.1,7.65l-4.97-.91-4.41,2.48c1.52-2.47,2.71-6.24,3.29-9.21Z"/>
  </g>
  <g>
    <line class="cls-2" x1="186.44" y1="38.09" x2="185.66" y2="33.41"/>
    <path class="cls-8" d="M184.67,27.46c1.51,2.63,3.86,5.81,6.1,7.65l-4.97-.91-4.41,2.48c1.52-2.47,2.71-6.24,3.29-9.21Z"/>
  </g>
  <g>
    <line class="cls-2" x1="162.77" y1="78.27" x2="167.21" y2="79.93"/>
    <path class="cls-8" d="M172.87,82.04c-3.03,0-6.96.45-9.67,1.47l3.27-3.85.05-5.06c1.38,2.55,4.05,5.46,6.35,7.44Z"/>
  </g>
  <g>
    <line class="cls-2" x1="171.38" y1="65.18" x2="175.83" y2="66.83"/>
    <path class="cls-8" d="M181.48,68.94c-3.03,0-6.96.45-9.67,1.47l3.27-3.85.05-5.06c1.38,2.55,4.05,5.46,6.35,7.44Z"/>
  </g>
  <g>
    <line class="cls-2" x1="134.8" y1="76" x2="137.82" y2="79.66"/>
    <path class="cls-8" d="M141.66,84.32c-2.62-1.52-6.25-3.09-9.11-3.56l4.76-1.7,2.57-4.35c-.08,2.9.78,6.76,1.77,9.62Z"/>
  </g>
  <g>
    <line class="cls-2" x1="155.95" y1="67.06" x2="160.39" y2="68.72"/>
    <path class="cls-8" d="M166.05,70.83c-3.03,0-6.96.45-9.67,1.47l3.27-3.85.05-5.06c1.38,2.55,4.05,5.46,6.35,7.44Z"/>
  </g>
  <g>
    <line class="cls-2" x1="254.51" y1="43.41" x2="258.41" y2="39.35"/>
    <path class="cls-8" d="M262.59,35c-1.21,2.78-2.36,6.56-2.5,9.46l-2.24-4.54-4.62-2.06c2.89-.25,6.62-1.55,9.35-2.86Z"/>
  </g>
  <g>
    <line class="cls-2" x1="252" y1="29.68" x2="258.24" y2="29.68"/>
    <path class="cls-8" d="M264.27,29.68c-2.84,1.05-6.36,2.85-8.55,4.76l1.72-4.76-1.72-4.75c2.18,1.9,5.71,3.7,8.55,4.75Z"/>
  </g>
  <rect class="cls-2" x="236.79" y="10.62" width="92.23" height="92.23"/>
  <g>
    <line class="cls-2" x1="297.58" y1="84.08" x2="302.03" y2="85.74"/>
    <path class="cls-8" d="M307.68,87.85c-3.03,0-6.96.45-9.67,1.47l3.27-3.85.05-5.06c1.38,2.55,4.05,5.46,6.35,7.44Z"/>
  </g>
  <g>
    <line class="cls-2" x1="297.86" y1="33.56" x2="292.82" y2="33.97"/>
    <path class="cls-8" d="M286.81,34.46c2.75-1.28,6.11-3.36,8.13-5.43l-1.33,4.88,2.1,4.6c-2.33-1.72-5.99-3.23-8.9-4.05Z"/>
  </g>
  <g>
    <line class="cls-2" x1="306.19" y1="70.98" x2="310.64" y2="72.64"/>
    <path class="cls-8" d="M316.29,74.75c-3.03,0-6.96.45-9.67,1.47l3.27-3.85.05-5.06c1.38,2.55,4.05,5.46,6.35,7.44Z"/>
  </g>
  <g>
    <line class="cls-2" x1="253.62" y1="61.26" x2="258.33" y2="61.26"/>
    <path class="cls-8" d="M264.37,61.26c-2.84,1.05-6.36,2.85-8.55,4.76l1.72-4.76-1.72-4.75c2.18,1.9,5.71,3.7,8.55,4.75Z"/>
  </g>
  <g>
    <line class="cls-2" x1="289.53" y1="49.79" x2="285.4" y2="52.13"/>
    <path class="cls-8" d="M280.14,55.09c1.95-2.31,4.14-5.61,5.1-8.34l.84,4.99,3.84,3.29c-2.84-.58-6.79-.42-9.78.06Z"/>
  </g>
  <g>
    <line class="cls-2" x1="303.29" y1="43.58" x2="293.59" y2="43.58"/>
    <path class="cls-8" d="M287.55,43.58c2.84-1.05,6.36-2.85,8.55-4.76l-1.72,4.76,1.72,4.75c-2.18-1.9-5.71-3.7-8.55-4.75Z"/>
  </g>
  <g>
    <line class="cls-2" x1="269.61" y1="81.8" x2="272.63" y2="85.46"/>
    <path class="cls-8" d="M276.48,90.12c-2.62-1.52-6.25-3.09-9.11-3.56l4.76-1.7,2.57-4.35c-.08,2.9.78,6.76,1.77,9.62Z"/>
  </g>
  <g>
    <line class="cls-2" x1="290.76" y1="72.86" x2="295.2" y2="74.52"/>
    <path class="cls-8" d="M300.86,76.63c-3.03,0-6.96.45-9.67,1.47l3.27-3.85.05-5.06c1.38,2.55,4.05,5.46,6.35,7.44Z"/>
  </g>
  <g>
    <line class="cls-2" x1="287.7" y1="20.56" x2="285.08" y2="22.4"/>
    <path class="cls-8" d="M280.14,25.87c1.72-2.5,3.56-5.99,4.25-8.81l1.33,4.88,4.14,2.9c-2.88-.3-6.8.26-9.73,1.03Z"/>
  </g>
  <g>
    <line class="cls-2" x1="268.71" y1="22.32" x2="269.42" y2="23.27"/>
    <path class="cls-8" d="M273.05,28.09c-2.55-1.64-6.1-3.37-8.94-3.97l4.83-1.49,2.76-4.23c-.21,2.89.47,6.79,1.34,9.69Z"/>
  </g>
  <g>
    <line class="cls-2" x1="320.35" y1="21.24" x2="310.89" y2="25.15"/>
    <path class="cls-8" d="M305.31,27.46c2.22-2.06,4.79-5.07,6.08-7.66l.23,5.05,3.41,3.74c-2.75-.93-6.69-1.24-9.72-1.13Z"/>
  </g>
  <g>
    <line class="cls-2" x1="283.41" y1="78.27" x2="286.09" y2="84.57"/>
    <path class="cls-8" d="M288.46,90.12c-2.08-2.2-5.12-4.73-7.73-6l5.05-.28,3.7-3.45c-.9,2.76-1.17,6.7-1.02,9.73Z"/>
  </g>
  <g>
    <line class="cls-2" x1="302.73" y1="52.44" x2="299.12" y2="55.63"/>
    <path class="cls-8" d="M294.6,59.62c1.43-2.67,2.88-6.35,3.26-9.22l1.86,4.7,4.44,2.42c-2.9.02-6.73,1-9.55,2.1Z"/>
  </g>
  <g>
    <line class="cls-2" x1="260.44" y1="76" x2="259.11" y2="77.52"/>
    <path class="cls-8" d="M255.12,82.04c1.09-2.83,2.07-6.66,2.09-9.56l2.43,4.44,4.7,1.86c-2.87.38-6.55,1.83-9.22,3.26Z"/>
  </g>
  <path class="cls-8" d="M281.64,70.83c-2.91-.85-6.81-1.52-9.69-1.3l4.22-2.78,1.47-4.84c.61,2.83,2.36,6.38,4.01,8.92Z"/>
  <g>
    <line class="cls-2" x1="256.4" y1="51.76" x2="260.3" y2="47.7"/>
    <path class="cls-8" d="M264.49,43.35c-1.21,2.78-2.36,6.56-2.5,9.46l-2.24-4.54-4.62-2.06c2.89-.25,6.62-1.55,9.35-2.86Z"/>
  </g>
  <g>
    <line class="cls-2" x1="45.2" y1="147.54" x2="405.16" y2="147.54"/>
    <polygon class="cls-8" points="401.84 151.63 401.16 150.9 404.77 147.54 401.16 144.18 401.84 143.45 406.24 147.54 401.84 151.63"/>
  </g>
  <text class="cls-6" transform="translate(208.37 161.35)"><tspan x="0" y="0">時刻</tspan></text>
  <text class="cls-6" transform="translate(31.69 151.21)"><tspan x="0" y="0">0</tspan></text>
  <text class="cls-6" transform="translate(410.88 150.79)"><tspan x="0" y="0">1</tspan></text>
</svg>