<?xml version="1.0" encoding="UTF-8"?>
<svg id="_レイヤー_1" data-name="レイヤー 1" xmlns="http://www.w3.org/2000/svg" viewBox="0 0 266.53 187.54">
  <defs>
    <style>
      .cls-1 {
        fill: none;
        stroke: #231815;
        stroke-miterlimit: 10;
      }

      .cls-2, .cls-3, .cls-4 {
        fill: #231815;
      }

      .cls-3 {
        font-size: 12px;
      }

      .cls-3, .cls-4 {
        font-family: KozGoPr6N-Regular-83pv-RKSJ-H, 'Kozuka Gothic Pr6N';
      }

      .cls-4 {
        font-size: 16px;
      }

      .cls-5 {
        letter-spacing: -.5em;
      }
    </style>
  </defs>
  <rect class="cls-1" x=".5" y="44.61" width="150.47" height="98.32"/>
  <text class="cls-3" transform="translate(33.73 84.77)"><tspan x="0" y="0">事前学習された</tspan><tspan x="18" y="14">レイヤー</tspan><tspan x="-12" y="28">（パラメータ固定</tspan><tspan class="cls-5" x="84" y="28">）</tspan></text>
  <rect class="cls-1" x="169.88" y="64.2" width="96.16" height="62.03"/>
  <text class="cls-3" transform="translate(191.8 84.21)"><tspan x="0" y="0">ファイン</tspan><tspan x="-18" y="14">チューニング用</tspan><tspan x="0" y="28">レイヤー</tspan></text>
  <g>
    <line class="cls-1" x1="75.73" y1="187.54" x2="75.73" y2="150.11"/>
    <polygon class="cls-2" points="80.72 151.57 75.73 142.93 70.75 151.57 80.72 151.57"/>
  </g>
  <text class="cls-4" transform="translate(31.2 172.99)"><tspan x="0" y="0">入力</tspan></text>
  <g>
    <line class="cls-1" x1="217.96" y1="165.24" x2="217.96" y2="133.4"/>
    <polygon class="cls-2" points="222.94 134.86 217.96 126.22 212.97 134.86 222.94 134.86"/>
  </g>
  <line class="cls-1" x1="76.81" y1="165.24" x2="217.93" y2="165.23"/>
  <g>
    <line class="cls-1" x1="73.1" y1="44.61" x2="73.1" y2="7.18"/>
    <polygon class="cls-2" points="78.09 8.63 73.1 0 68.12 8.63 78.09 8.63"/>
  </g>
  <text class="cls-4" transform="translate(28.57 30.05)"><tspan x="0" y="0">出力</tspan></text>
  <g>
    <line class="cls-1" x1="80.28" y1="25.89" x2="217.96" y2="25.88"/>
    <polygon class="cls-2" points="81.74 30.87 73.1 25.89 81.74 20.9 81.74 30.87"/>
  </g>
  <text class="cls-4" transform="translate(88.18 22.22)"><tspan x="0" y="0">+</tspan></text>
  <line class="cls-1" x1="217.96" y1="64.9" x2="217.96" y2="25.88"/>
</svg>