<?xml version="1.0" encoding="UTF-8"?>
<svg id="_レイヤー_1" data-name="レイヤー 1" xmlns="http://www.w3.org/2000/svg" viewBox="0 0 71.93 166.24">
  <defs>
    <style>
      .cls-1 {
        fill: none;
        stroke: #000;
        stroke-miterlimit: 10;
        stroke-width: .5px;
      }

      .cls-2 {
        font-family: KozGoPr6N-Regular-83pv-RKSJ-H, 'Kozuka Gothic Pr6N';
        font-size: 12px;
        letter-spacing: .63em;
      }

      .cls-3 {
        fill: #e71f19;
      }
    </style>
  </defs>
  <text class="cls-2" transform="translate(3.52 12.11)"><tspan x="0" y="0">11111</tspan><tspan x="0" y="14.2">11111</tspan><tspan x="0" y="28.4">11</tspan><tspan class="cls-3" x="28.34" y="28.4">0</tspan><tspan x="42.52" y="28.4">00</tspan><tspan x="0" y="42.6">00000</tspan><tspan x="0" y="56.8">00000</tspan></text>
  <g>
    <rect class="cls-1" x=".25" y=".25" width="71.43" height="70.97"/>
    <line class="cls-1" x1=".25" y1="57.03" x2="71.68" y2="57.03"/>
    <line class="cls-1" x1=".25" y1="42.83" x2="71.68" y2="42.83"/>
    <line class="cls-1" x1=".25" y1="28.64" x2="71.68" y2="28.64"/>
    <line class="cls-1" x1=".25" y1="14.44" x2="71.68" y2="14.44"/>
    <line class="cls-1" x1="57.39" y1=".25" x2="57.39" y2="71.22"/>
    <line class="cls-1" x1="43.11" y1=".25" x2="43.11" y2="71.22"/>
    <line class="cls-1" x1="28.82" y1=".25" x2="28.82" y2="71.22"/>
    <line class="cls-1" x1="14.54" y1=".25" x2="14.54" y2="71.22"/>
  </g>
  <text class="cls-2" transform="translate(3.52 105.37)"><tspan x="0" y="0">11111</tspan><tspan x="0" y="14.2">11111</tspan><tspan x="0" y="28.4">11</tspan><tspan class="cls-3" x="28.34" y="28.4">1</tspan><tspan x="42.52" y="28.4">00</tspan><tspan x="0" y="42.6">00000</tspan><tspan x="0" y="56.8">00000</tspan></text>
  <g>
    <rect class="cls-1" x=".25" y="93.51" width="71.43" height="70.97"/>
    <line class="cls-1" x1=".25" y1="150.29" x2="71.68" y2="150.29"/>
    <line class="cls-1" x1=".25" y1="136.09" x2="71.68" y2="136.09"/>
    <line class="cls-1" x1=".25" y1="121.9" x2="71.68" y2="121.9"/>
    <line class="cls-1" x1=".25" y1="107.71" x2="71.68" y2="107.71"/>
    <line class="cls-1" x1="57.39" y1="93.51" x2="57.39" y2="164.48"/>
    <line class="cls-1" x1="43.11" y1="93.51" x2="43.11" y2="164.48"/>
    <line class="cls-1" x1="28.82" y1="93.51" x2="28.82" y2="164.48"/>
    <line class="cls-1" x1="14.54" y1="93.51" x2="14.54" y2="164.48"/>
  </g>
</svg>