<?xml version="1.0" encoding="UTF-8"?>
<svg id="_レイヤー_1" xmlns="http://www.w3.org/2000/svg" version="1.1" viewBox="0 0 227.41 151.38">
  <!-- Generator: Adobe Illustrator 29.8.1, SVG Export Plug-In . SVG Version: 2.1.1 Build 2)  -->
  <defs>
    <style>
      .st0 {
        isolation: isolate;
      }

      .st1 {
        fill: none;
        stroke: #000;
        stroke-miterlimit: 10;
      }
    </style>
  </defs>
  <rect class="st1" x="130.86" y="20.62" width="32.69" height="130.25"/>
  <line class="st1" x1="163.56" y1="75.75" x2="208.72" y2="75.75"/>
  <g class="st0">
    <g class="st0">
      <path d="M20.05,10.14c.74-1.01,1.34-1.72,1.79-2.12.45-.41.89-.61,1.32-.61.51,0,.87.18,1.06.53.1.18.16.4.16.66s-.11.51-.32.73-.48.33-.78.33c-.19,0-.4-.07-.64-.21s-.42-.21-.54-.21c-.24,0-.47.12-.69.37-.22.25-.59.77-1.13,1.57l.19.98c.1.5.18.91.24,1.24.07.32.14.62.22.89.1.38.21.65.31.82s.26.25.46.25c.18,0,.4-.13.67-.4.14-.14.36-.41.66-.79l.41.28c-.35.58-.79,1.13-1.34,1.65s-1.09.78-1.62.78c-.44,0-.81-.18-1.09-.55-.16-.2-.31-.46-.43-.8-.06-.18-.15-.49-.27-.93s-.19-.72-.22-.83l-.14.23c-.64,1.11-1.12,1.82-1.42,2.16-.45.49-.97.74-1.56.74-.34,0-.63-.12-.88-.35s-.38-.52-.38-.85c0-.28.09-.54.28-.78s.44-.36.78-.36c.2,0,.45.07.75.21.3.14.49.21.58.21.2,0,.38-.09.52-.27s.43-.62.86-1.33l.39-.64c-.06-.27-.14-.61-.21-1.01s-.15-.8-.23-1.22l-.16-.83c-.11-.6-.29-.99-.53-1.18-.14-.11-.36-.17-.67-.17-.03,0-.11,0-.23.01s-.25.02-.37.03v-.53c.59-.07,1.23-.16,1.93-.27.7-.11,1.17-.19,1.4-.23.2.26.36.58.48.95s.22.76.29,1.18l.11.65v.02Z"/>
    </g>
  </g>
  <g class="st0">
    <g class="st0">
      <path d="M190.76,18.33c.45-.54.67-1.07.67-1.57,0-.46-.13-1.37-.38-2.75-.16-.88-.34-1.74-.52-2.58-.33-1.48-.58-2.36-.74-2.63s-.47-.41-.93-.41v-.53c.62-.06,1.27-.15,1.95-.27s.99-.18.92-.17l.14-.02c.16.46.4,1.38.72,2.75s.57,2.61.76,3.72l.08.47.37-.64c.31-.52.61-1.14.91-1.87.3-.73.45-1.22.45-1.48,0-.12-.03-.24-.1-.36-.07-.11-.17-.22-.32-.33l-.16-.11c-.11-.08-.21-.18-.31-.31-.15-.21-.22-.44-.22-.68,0-.29.11-.55.33-.8.22-.24.49-.37.83-.37.29,0,.57.11.84.32.27.21.4.56.4,1.04,0,.79-.38,1.99-1.12,3.58-.56,1.19-1.21,2.37-1.95,3.56-1.04,1.65-1.98,2.87-2.83,3.66-.84.79-1.7,1.19-2.56,1.19-.37,0-.68-.12-.92-.38s-.37-.53-.37-.84c0-.33.11-.6.34-.79.23-.2.48-.29.77-.29s.64.12,1.02.35.63.35.76.35c.34,0,.73-.27,1.18-.82h0Z"/>
    </g>
  </g>
  <line class="st1" x1="163.56" y1="41.54" x2="208.72" y2="41.54"/>
  <line class="st1" x1="163.56" y1="126.84" x2="208.72" y2="126.84"/>
  <g class="st0">
    <g class="st0">
      <path d="M186.04,110.84c0-.41.14-.73.43-.96s.64-.3,1.04-.21c.41.09.76.31,1.05.66s.43.73.43,1.14-.14.72-.43.95-.64.3-1.05.21c-.41-.08-.76-.3-1.04-.65s-.43-.73-.43-1.13h0Z"/>
      <path d="M186.04,105.84c0-.41.14-.73.43-.96s.64-.3,1.04-.21c.41.09.76.31,1.05.66s.43.73.43,1.14-.14.72-.43.95-.64.3-1.05.21c-.41-.08-.76-.3-1.04-.65s-.43-.73-.43-1.13h0Z"/>
      <path d="M186.04,100.84c0-.41.14-.73.43-.96s.64-.3,1.04-.21c.41.09.76.31,1.05.66s.43.73.43,1.14-.14.72-.43.95-.64.3-1.05.21c-.41-.08-.76-.3-1.04-.65s-.43-.73-.43-1.13h0Z"/>
    </g>
  </g>
  <line class="st1" x1=".22" y1="124.75" x2="45.21" y2="124.75"/>
  <g class="st0">
    <g class="st0">
      <path d="M15.5,106.48c0-.41.14-.73.43-.96.29-.23.64-.3,1.04-.21.41.09.76.31,1.05.66s.43.73.43,1.14-.14.72-.43.95-.64.3-1.05.21c-.41-.08-.76-.3-1.04-.65s-.43-.73-.43-1.13h0Z"/>
      <path d="M15.5,101.48c0-.41.14-.73.43-.96.29-.23.64-.3,1.04-.21.41.09.76.31,1.05.66s.43.73.43,1.14-.14.72-.43.95-.64.3-1.05.21c-.41-.08-.76-.3-1.04-.65s-.43-.73-.43-1.13h0Z"/>
      <path d="M15.5,96.48c0-.41.14-.73.43-.96.29-.23.64-.3,1.04-.21.41.09.76.31,1.05.66s.43.73.43,1.14-.14.72-.43.95-.64.3-1.05.21c-.41-.08-.76-.3-1.04-.65s-.43-.73-.43-1.13h0Z"/>
    </g>
  </g>
  <rect class="st1" x="44.8" y="20.62" width="32.69" height="130.25"/>
  <line class="st1" x1="77.21" y1="75.31" x2="91.82" y2="75.31"/>
  <line class="st1" x1="77.21" y1="41.1" x2="91.82" y2="41.1"/>
  <line class="st1" x1="77.12" y1="133.72" x2="91.73" y2="133.72"/>
  <line class="st1" x1="77.12" y1="58.21" x2="91.73" y2="58.21"/>
  <line class="st1" x1="77.26" y1="65.34" x2="91.87" y2="65.34"/>
  <line class="st1" x1="77.26" y1="31.13" x2="91.87" y2="31.13"/>
  <line class="st1" x1="77.17" y1="48.23" x2="91.78" y2="48.23"/>
  <g class="st0">
    <g class="st0">
      <path d="M102.1,81.74c.41,0,.73.14.96.43.23.29.3.64.21,1.04-.09.41-.31.76-.66,1.05s-.73.43-1.14.43-.72-.14-.95-.43c-.23-.29-.3-.64-.21-1.05.08-.41.3-.76.65-1.04s.73-.43,1.13-.43h.01Z"/>
      <path d="M107.1,81.74c.41,0,.73.14.96.43.23.29.3.64.21,1.04-.09.41-.31.76-.66,1.05s-.73.43-1.14.43-.72-.14-.95-.43c-.23-.29-.3-.64-.21-1.05.08-.41.3-.76.65-1.04s.73-.43,1.13-.43h.01Z"/>
      <path d="M112.1,81.74c.41,0,.73.14.96.43.23.29.3.64.21,1.04-.09.41-.31.76-.66,1.05s-.73.43-1.14.43-.72-.14-.95-.43c-.23-.29-.3-.64-.21-1.05.08-.41.3-.76.65-1.04s.73-.43,1.13-.43h.01Z"/>
    </g>
  </g>
  <line class="st1" x1="116.43" y1="74.34" x2="131.04" y2="74.34"/>
  <line class="st1" x1="116.47" y1="43.7" x2="131.08" y2="43.7"/>
  <line class="st1" x1="116.34" y1="132.75" x2="130.95" y2="132.75"/>
  <line class="st1" x1="116.34" y1="57.24" x2="130.95" y2="57.24"/>
  <line class="st1" x1="116.26" y1="88.63" x2="130.86" y2="88.63"/>
  <line class="st1" x1="116.47" y1="30.16" x2="131.08" y2="30.16"/>
  <g class="st0">
    <g class="st0">
      <path d="M151.87,69.75h-5.95v5.76h-.78v-1.4c-1.43.22-2.84.41-3.78.53,0,.08-.08.14-.17.16l-.28-.84,1.15-.12v-4.08h-1.1v-.68h10.9v.68h.01ZM150.3,64.88v3.41h-7.76v-3.41h7.76ZM145.15,70.6v-.85h-2.31v.85h2.31ZM145.15,72.1v-.88h-2.31v.88h2.31ZM142.83,72.73v1.02c.73-.08,1.52-.17,2.31-.26v-.75h-2.31ZM149.5,66.29v-.82h-6.18v.82h6.18ZM149.5,67.7v-.84h-6.18v.84h6.18ZM150.82,70.54l.52.2c-.04.07-.07.1-.11.14-.36,1.1-.97,2.04-1.72,2.79.7.54,1.54.94,2.47,1.18-.18.16-.38.44-.49.64-.96-.28-1.81-.73-2.53-1.32-.71.59-1.52,1.03-2.35,1.34-.1-.19-.3-.48-.46-.64.79-.25,1.57-.67,2.25-1.22-.62-.64-1.12-1.4-1.46-2.28l.47-.14h-1.14v-.67h4.4l.14-.02h.01ZM147.63,71.24c.3.74.74,1.4,1.32,1.96.55-.55,1.02-1.21,1.33-1.96h-2.65Z"/>
    </g>
    <g class="st0">
      <path d="M150.61,79.94l.55.3s-.08.11-.16.12c-.43,1.15-1.08,2.17-1.86,3.03.88.8,1.91,1.45,3.01,1.83-.17.17-.4.46-.53.66-1.09-.44-2.12-1.13-2.99-1.98-.95.91-2.03,1.61-3.15,2.11-.1-.17-.32-.47-.49-.61l-.05.02c-.06-.22-.16-.46-.28-.72-.37.02-.76.04-1.12.06v5.13h-.72v-5.1c-.67.04-1.27.06-1.75.07,0,.1-.08.13-.17.16l-.22-.9h.84c.26-.32.54-.7.83-1.1-.37-.55-1-1.26-1.55-1.78l.42-.52c.12.11.25.23.38.36.41-.7.88-1.65,1.14-2.34l.85.36c-.04.07-.12.11-.25.11-.31.67-.84,1.65-1.29,2.33.28.29.53.59.72.85.52-.78,1-1.59,1.34-2.28l.84.4c-.04.06-.13.11-.26.11-.61,1.02-1.57,2.45-2.41,3.49l2.08-.04c-.22-.41-.46-.83-.71-1.19l.6-.26c.55.77,1.12,1.8,1.33,2.47.9-.44,1.77-1.02,2.53-1.74-.49-.54-.91-1.14-1.26-1.78-.37.53-.8,1.04-1.31,1.51-.12-.17-.4-.4-.58-.49,1.25-1.14,2.09-2.67,2.52-3.86l.98.14c-.02.08-.1.14-.24.16-.12.29-.26.6-.42.92h2.65l.13-.04.03.03ZM142.38,85.9c-.04.07-.11.12-.24.12-.17,1.02-.44,2.17-.8,2.88-.17-.11-.43-.23-.6-.31.35-.67.6-1.82.75-2.91l.89.23h0ZM144.87,88.23c-.11-.65-.44-1.64-.79-2.39l.62-.2c.36.76.71,1.73.83,2.36,0,0-.66.23-.66.23ZM150.61,89.97c-1.08-.65-3.08-1.49-4.74-1.94l.49-.58c1.62.44,3.63,1.27,4.73,1.87l-.48.65ZM149.63,87.16c-.54-.43-1.58-1.06-2.42-1.42l.49-.5c.85.35,1.89.94,2.45,1.36l-.52.56ZM147.44,80.7l-.14.25c.35.68.8,1.33,1.33,1.92.58-.65,1.07-1.37,1.43-2.17h-2.62Z"/>
    </g>
    <g class="st0">
      <path d="M151.11,93.74v2.41h-1.57l.38.17c-.04.07-.13.1-.24.08-.14.17-.35.4-.55.6h1.96v3.18h-7.54v-3.18h1.64c-.16-.25-.37-.53-.59-.73l.24-.12h-1.96v1.13c0,2.05-.17,4.99-1.43,6.97-.14-.13-.49-.33-.7-.42,1.21-1.91,1.32-4.59,1.32-6.55v-3.54h9.04ZM150.29,95.49v-1.08h-7.41v1.08h7.41ZM144.14,104.31v-3.55h6.43v3.53h-.77v-.36h-4.92v.38h-.74,0ZM144.29,97.55v.78h2.58v-.78h-2.58ZM144.29,98.85v.8h2.58v-.8h-2.58ZM149.8,101.32h-4.92v.73h4.92v-.73ZM144.88,103.35h4.92v-.77h-4.92v.77ZM145.35,96.15c.26.26.5.59.62.85h2.35c.22-.25.47-.58.65-.85h-3.62ZM150.29,98.33v-.78h-2.66v.78h2.66ZM150.29,99.66v-.8h-2.66v.8h2.66Z"/>
    </g>
  </g>
  <line class="st1" x1="163.86" y1="58.65" x2="209.02" y2="58.65"/>
  <line class="st1" x1=".28" y1="73.34" x2="45.27" y2="73.34"/>
  <line class="st1" x1=".28" y1="39.13" x2="45.27" y2="39.13"/>
  <line class="st1" y1="56.24" x2="44.99" y2="56.24"/>
  <line class="st1" x1=".28" y1="73.34" x2="45.27" y2="73.34"/>
  <line class="st1" x1=".28" y1="39.13" x2="45.27" y2="39.13"/>
  <line class="st1" y1="56.24" x2="44.99" y2="56.24"/>
  <line class="st1" x1=".36" y1="81.04" x2="45.35" y2="81.04"/>
  <line class="st1" x1=".36" y1="46.83" x2="45.35" y2="46.83"/>
  <line class="st1" x1=".08" y1="63.93" x2="45.07" y2="63.93"/>
  <g>
    <path d="M210.45,41.39c0-3.14,1.22-4.67,2.9-4.67s2.75,1.61,2.75,4.55c0,3.12-1.09,4.73-2.88,4.73-1.63,0-2.77-1.61-2.77-4.61ZM215.09,41.32c0-2.24-.54-3.79-1.8-3.79-1.07,0-1.82,1.43-1.82,3.79s.66,3.86,1.79,3.86c1.33,0,1.83-1.73,1.83-3.86Z"/>
    <path d="M217.29,45.24c0-.46.3-.78.72-.78s.71.32.71.78c0,.43-.28.76-.72.76s-.71-.36-.71-.76Z"/>
    <path d="M222.32,45.85v-8.05h-.02l-1.48.85-.24-.74,1.86-1.04h.85v8.98h-.97Z"/>
    <path d="M210.45,58.39c0-3.14,1.22-4.67,2.9-4.67s2.75,1.61,2.75,4.55c0,3.12-1.09,4.73-2.88,4.73-1.63,0-2.77-1.61-2.77-4.61ZM215.09,58.32c0-2.24-.54-3.79-1.8-3.79-1.07,0-1.82,1.43-1.82,3.79s.66,3.86,1.79,3.86c1.33,0,1.83-1.73,1.83-3.86Z"/>
    <path d="M217.29,62.24c0-.46.3-.78.72-.78s.71.32.71.78c0,.43-.28.76-.72.76s-.71-.36-.71-.76Z"/>
    <path d="M225.1,62.85h-5.31v-.61l.88-.92c2.13-2.16,3.21-3.47,3.21-4.93,0-.96-.42-1.85-1.72-1.85-.72,0-1.37.4-1.8.74l-.34-.7c.55-.49,1.37-.88,2.33-.88,1.81,0,2.53,1.32,2.53,2.55,0,1.69-1.19,3.13-3.05,5l-.71.74v.02h3.97v.82Z"/>
    <path d="M210.45,75.39c0-3.14,1.22-4.67,2.9-4.67s2.75,1.61,2.75,4.55c0,3.12-1.09,4.73-2.88,4.73-1.63,0-2.77-1.61-2.77-4.6ZM215.09,75.32c0-2.24-.54-3.79-1.8-3.79-1.07,0-1.82,1.43-1.82,3.79s.66,3.86,1.79,3.86c1.33,0,1.83-1.73,1.83-3.86Z"/>
    <path d="M217.29,79.24c0-.46.3-.78.72-.78s.71.32.71.78-.28.76-.72.76-.71-.36-.71-.76Z"/>
    <path d="M220.71,75.09c.41-.6,1.14-1.1,2.1-1.1,1.52,0,2.54,1.14,2.54,2.87s-1.01,3.14-2.76,3.14-2.93-1.45-2.93-3.78,1.13-4.93,4.04-5.41c.34-.05.64-.08.84-.08v.83c-2.48,0-3.67,1.81-3.87,3.54h.04ZM224.35,76.92c0-1.38-.74-2.18-1.82-2.18s-1.86,1.03-1.86,1.7c.01,1.64.71,2.77,1.96,2.77,1.04,0,1.73-.94,1.73-2.29Z"/>
    <path d="M210.45,126.39c0-3.14,1.22-4.67,2.9-4.67s2.75,1.61,2.75,4.55c0,3.12-1.09,4.72-2.88,4.72-1.63,0-2.77-1.61-2.77-4.61ZM215.09,126.32c0-2.24-.54-3.79-1.8-3.79-1.07,0-1.82,1.43-1.82,3.79s.66,3.86,1.79,3.86c1.33,0,1.83-1.73,1.83-3.86Z"/>
    <path d="M217.29,130.24c0-.46.3-.78.72-.78s.71.32.71.78c0,.43-.28.75-.72.75s-.71-.36-.71-.75Z"/>
    <path d="M222.32,130.85v-8.05h-.02l-1.48.85-.24-.74,1.86-1.04h.85v8.98h-.97Z"/>
  </g>
</svg>